<svg width="319" height="54" viewBox="0 0 319 54" fill="none" xmlns="http://www.w3.org/2000/svg">
<g clip-path="url(#clip0_306_2192)">
<mask id="mask0_306_2192" style="mask-type:luminance" maskUnits="userSpaceOnUse" x="0" y="0" width="319" height="54">
<path d="M318.811 0H0V53.77H318.811V0Z" fill="white"/>
</mask>
<g mask="url(#mask0_306_2192)">
<path d="M57.2716 0.941406H0V12.2607H57.2716V0.941406Z" fill="#111111"/>
<path d="M36.2724 3.77344H21.9531V52.8257H36.2724V3.77344Z" fill="#111111"/>
<path d="M76.3622 3.77344H62.043V52.8257H76.3622V3.77344Z" fill="#111111"/>
<mask id="mask1_306_2192" style="mask-type:luminance" maskUnits="userSpaceOnUse" x="-165" y="-199" width="649" height="453">
<path d="M483.592 -198.426H-164.785V253.727H483.592V-198.426Z" fill="white"/>
</mask>
<g mask="url(#mask1_306_2192)">
<path d="M114.541 18.8648C114.541 9.38505 106.891 1.21786 97.3615 0.964652V0.941406H62.043V12.2607H94.9847C98.4099 12.2607 101.189 15.4775 101.189 18.8648C101.189 22.637 98.4099 25.4688 94.9847 25.4688H62.043V34.902H97.3615V34.8839C106.891 34.6256 114.541 28.3523 114.541 18.8648Z" fill="#111111"/>
</g>
<path d="M90.6794 33.9609H73.5L98.3161 52.8274H118.361L90.6794 33.9609Z" fill="#111111"/>
<mask id="mask2_306_2192" style="mask-type:luminance" maskUnits="userSpaceOnUse" x="-165" y="-199" width="649" height="453">
<path d="M483.592 -198.426H-164.785V253.727H483.592V-198.426Z" fill="white"/>
</mask>
<g mask="url(#mask2_306_2192)">
<path d="M148.977 41.9832C139.51 41.9832 131.837 35.0071 131.837 26.4188C131.837 17.8304 139.51 10.8569 148.977 10.8569C158.444 10.8569 166.117 17.833 166.117 26.4214C166.117 35.0097 158.444 41.9858 148.977 41.9858M148.977 0.0078125C130.365 0.0078125 118.911 12.0454 118.911 26.8787C118.911 41.7119 130.368 53.765 148.977 53.765C167.587 53.765 179.043 41.7274 179.043 26.8787C179.043 12.0299 167.587 0.0078125 148.977 0.0078125Z" fill="#111111"/>
<path d="M213.332 41.9832C203.866 41.9832 196.192 35.0071 196.192 26.4188C196.192 17.8304 203.866 10.8569 213.332 10.8569C222.799 10.8569 230.473 17.833 230.473 26.4214C230.473 35.0097 222.799 41.9858 213.332 41.9858M213.332 0.0078125C194.72 0.0078125 183.267 12.0454 183.267 26.8787C183.267 41.7119 194.723 53.765 213.332 53.765C231.942 53.765 243.398 41.7274 243.398 26.8787C243.398 12.0299 231.942 0.0078125 213.332 0.0078125Z" fill="#111111"/>
<path d="M271.562 41.5086H262.496V12.266H271.562C281.842 12.266 289.22 16.9839 289.22 26.8873C289.22 36.7907 281.842 41.5086 271.562 41.5086ZM302.345 27.5952C302.345 13.3848 291.131 0.957031 272.041 0.957031H248.176V52.8305H272.041C292.086 52.8305 302.345 41.8083 302.345 27.6055" fill="#111111"/>
<path d="M312.824 53.4651C314.009 53.4651 315.164 53.1183 316.15 52.4688C317.133 51.819 317.899 50.8958 318.354 49.8153C318.806 48.735 318.924 47.546 318.694 46.3991C318.464 45.2519 317.894 44.198 317.057 43.3707C316.22 42.5434 315.156 41.9798 313.996 41.7509C312.835 41.5223 311.632 41.6385 310.537 42.0855C309.444 42.5322 308.51 43.2895 307.852 44.2613C307.193 45.2333 306.84 46.3763 306.84 47.5457C306.84 49.1143 307.47 50.6186 308.591 51.7278C309.716 52.8367 311.237 53.4599 312.824 53.4599" fill="#111111"/>
</g>
</g>
</g>
<defs>
<clipPath id="clip0_306_2192">
<rect width="318.96" height="54" fill="white"/>
</clipPath>
</defs>
</svg>
